<?xml version="1.0" encoding="UTF-8" standalone="no"?>
<!-- Created with Inkscape (http://www.inkscape.org/) -->

<svg
   width="256"
   height="256"
   viewBox="0 0 67.733332 67.733335"
   version="1.1"
   id="svg5"
   inkscape:version="1.1.1 (3bf5ae0d25, 2021-09-20)"
   sodipodi:docname="logo.svg"
   inkscape:export-filename="C:\Users\alecb\AppData\Roaming\majicjungle\sapiens\mods\roman_names\assets\logo.png"
   inkscape:export-xdpi="96.000008"
   inkscape:export-ydpi="96.000008"
   xmlns:inkscape="http://www.inkscape.org/namespaces/inkscape"
   xmlns:sodipodi="http://sodipodi.sourceforge.net/DTD/sodipodi-0.dtd"
   xmlns="http://www.w3.org/2000/svg"
   xmlns:svg="http://www.w3.org/2000/svg">
  <sodipodi:namedview
     id="namedview7"
     pagecolor="#232323"
     bordercolor="#cccccc"
     borderopacity="1"
     inkscape:pageshadow="0"
     inkscape:pageopacity="0"
     inkscape:pagecheckerboard="false"
     inkscape:document-units="mm"
     showgrid="false"
     units="px"
     inkscape:zoom="1.4930696"
     inkscape:cx="47.887922"
     inkscape:cy="111.51523"
     inkscape:window-width="1920"
     inkscape:window-height="1001"
     inkscape:window-x="-9"
     inkscape:window-y="-9"
     inkscape:window-maximized="1"
     inkscape:current-layer="layer1" />
  <defs
     id="defs2" />
  <g
     inkscape:label="Layer 1"
     inkscape:groupmode="layer"
     id="layer1">
    <path
       style="opacity:1;fill:none;stroke:#ffffff;stroke-width:1.05833;stroke-miterlimit:4;stroke-dasharray:none;stroke-opacity:1"
       id="path3254"
       sodipodi:type="arc"
       sodipodi:cx="34.023869"
       sodipodi:cy="31.808769"
       sodipodi:rx="25.340691"
       sodipodi:ry="25.252087"
       sodipodi:start="5.5952968"
       sodipodi:end="3.8164871"
       sodipodi:arc-type="arc"
       d="M 53.601791,15.776035 A 25.340691,25.252087 0 0 1 51.4306,50.160574 25.340691,25.252087 0 0 1 16.857901,50.384411 25.340691,25.252087 0 0 1 14.238544,16.030889"
       sodipodi:open="true" />
    <path
       style="fill:#ffffff;fill-opacity:1;stroke:none;stroke-width:1.05833;stroke-miterlimit:4;stroke-dasharray:none;stroke-opacity:1"
       d="m 9.3333043,14.319752 c -0.04988,-2.685265 1.0016437,-3.410733 2.0487497,-4.8868826 0.970142,1.2860116 2.058224,2.1153286 2.048749,4.8242306 -0.0095,2.708903 -0.541704,3.582157 -1.946312,5.137494 -1.452246,-1.555466 -2.1013017,-2.389576 -2.1511867,-5.074842 z"
       id="path4846-5"
       sodipodi:nodetypes="zczcz" />
    <path
       style="fill:#ffffff;fill-opacity:1;stroke:none;stroke-width:1.05833;stroke-miterlimit:4;stroke-dasharray:none;stroke-opacity:1"
       d="m 5.994453,20.302821 c -0.7446996,-2.580418 0.082656,-3.553809 0.7110263,-5.251042 1.2705139,0.990352 2.5364694,1.509048 3.2299769,4.12769 0.6934828,2.61865 0.4060068,3.600063 -0.5470889,5.466504 C 7.5823571,23.520442 6.7391578,22.883239 5.994453,20.302821 Z"
       id="path4846-5-4"
       sodipodi:nodetypes="zczcz" />
    <path
       style="fill:#ffffff;fill-opacity:1;stroke:none;stroke-width:1.05833;stroke-miterlimit:4;stroke-dasharray:none;stroke-opacity:1"
       d="M 4.1004596,26.801996 C 2.6852921,24.519359 3.218386,23.358402 3.3640497,21.554454 c 1.4911,0.609609 2.8501836,0.766392 4.2264119,3.099681 1.3762074,2.333301 1.3650223,3.355891 0.9525345,5.410605 C 6.4997985,29.469898 5.5156319,29.084633 4.1004596,26.801996 Z"
       id="path4846-5-4-3"
       sodipodi:nodetypes="zczcz" />
    <path
       style="fill:#ffffff;fill-opacity:1;stroke:none;stroke-width:1.05833;stroke-miterlimit:4;stroke-dasharray:none;stroke-opacity:1"
       d="m 3.9578693,33.457721 c -1.7988551,-1.994304 -1.4809107,-3.231609 -1.658656,-5.03268 1.5757947,0.334477 2.9410824,0.246854 4.7106358,2.297932 1.7695346,2.051095 1.9405379,3.059348 1.9003531,5.154672 C 6.7937539,35.655968 5.7567296,35.452022 3.9578693,33.457721 Z"
       id="path4846-5-4-3-0"
       sodipodi:nodetypes="zczcz" />
    <path
       style="fill:#ffffff;fill-opacity:1;stroke:none;stroke-width:1.05833;stroke-miterlimit:4;stroke-dasharray:none;stroke-opacity:1"
       d="M 4.9839621,40.066018 C 2.6853011,38.67703 2.6319037,37.400644 1.9409797,35.727901 3.5461773,35.592459 4.8278113,35.11381 7.1148389,36.565614 9.4018523,38.017445 9.8570833,38.933186 10.424468,40.950627 8.3343258,41.35038 7.2826278,41.454996 4.9839637,40.066009 Z"
       id="path4846-5-4-3-0-6"
       sodipodi:nodetypes="zczcz" />
    <path
       style="fill:#ffffff;fill-opacity:1;stroke:none;stroke-width:1.05833;stroke-miterlimit:4;stroke-dasharray:none;stroke-opacity:1"
       d="M 6.9546824,45.781738 C 4.3721006,45.044581 3.9856551,43.826931 2.8800191,42.394096 c 1.5134122,-0.551893 2.6245421,-1.350067 5.2123806,-0.549242 2.5878323,0.800854 3.2673993,1.565057 4.3442723,3.362928 -1.912011,0.934192 -2.8994056,1.311103 -5.4819904,0.573947 z"
       id="path4846-5-4-3-0-6-2"
       sodipodi:nodetypes="zczcz" />
    <path
       style="fill:#ffffff;fill-opacity:1;stroke:none;stroke-width:1.05833;stroke-miterlimit:4;stroke-dasharray:none;stroke-opacity:1"
       d="M 10.79884,50.774448 C 8.2000424,50.096673 7.785792,48.8882 6.6476081,47.48108 c 1.5003661,-0.586433 2.5929114,-1.409863 5.1984239,-0.668556 2.605507,0.741334 3.302409,1.489765 4.420203,3.26248 -1.890096,0.977766 -2.868594,1.377209 -5.467396,0.699435 z"
       id="path4846-5-4-3-0-6-2-0"
       sodipodi:nodetypes="zczcz" />
    <path
       style="fill:#ffffff;fill-opacity:1;stroke:none;stroke-width:1.05833;stroke-miterlimit:4;stroke-dasharray:none;stroke-opacity:1"
       d="m 15.650301,55.672244 c -2.678262,0.2001 -3.461449,-0.809172 -4.993892,-1.772015 1.229698,-1.040597 1.996813,-2.173394 4.701996,-2.315557 2.705188,-0.142136 3.606863,0.340361 5.238377,1.65571 -1.471742,1.53703 -2.268219,2.231752 -4.946485,2.431854 z"
       id="path4846-5-4-3-0-6-2-0-1"
       sodipodi:nodetypes="zczcz" />
    <path
       style="fill:#ffffff;fill-opacity:1;stroke:none;stroke-width:1.05833;stroke-miterlimit:4;stroke-dasharray:none;stroke-opacity:1"
       d="m 21.606181,59.365761 c -2.475972,1.040526 -3.539202,0.332319 -5.298131,-0.09384 0.835442,-1.37733 1.202973,-2.695137 3.722875,-3.689278 2.519916,-0.994118 3.528159,-0.823044 5.493006,-0.0941 -0.907249,1.924937 -1.441782,2.836688 -3.917757,3.877217 z"
       id="path4846-5-4-3-0-6-2-0-1-6"
       sodipodi:nodetypes="zczcz" />
    <path
       style="fill:#ffffff;fill-opacity:1;stroke:none;stroke-width:1.05833;stroke-miterlimit:4;stroke-dasharray:none;stroke-opacity:1"
       d="m 28.190799,61.438563 c -2.306233,1.376379 -3.458014,0.823732 -5.259241,0.647602 0.634732,-1.48058 0.814465,-2.836821 3.17068,-4.173411 2.356234,-1.336568 3.378491,-1.308096 5.425934,-0.860934 -0.629294,2.032848 -1.031144,3.010361 -3.337381,4.386743 z"
       id="path4846-5-4-3-0-6-2-0-1-6-9"
       sodipodi:nodetypes="zczcz" />
    <path
       style="fill:#ffffff;fill-opacity:1;stroke:none;stroke-width:1.05833;stroke-miterlimit:4;stroke-dasharray:none;stroke-opacity:1"
       d="m 14.529486,17.873303 c 2.385278,-1.234336 3.501513,-0.613026 5.288787,-0.328241 -0.723138,1.43947 -0.984592,2.782352 -3.417357,3.973947 -2.432776,1.191573 -3.451435,1.101312 -5.468081,0.531102 0.751126,-1.991055 1.211374,-2.942467 3.596651,-4.176808 z"
       id="path4846-5-0"
       sodipodi:nodetypes="zczcz" />
    <path
       style="fill:#ffffff;fill-opacity:1;stroke:none;stroke-width:1.05833;stroke-miterlimit:4;stroke-dasharray:none;stroke-opacity:1"
       d="m 12.907345,22.893955 c 2.448707,-1.103165 3.529606,-0.422235 5.298805,-0.04094 -0.800137,1.398135 -1.134031,2.724862 -3.627837,3.782774 -2.493816,1.057888 -3.506081,0.912518 -5.4888358,0.233784 0.8579976,-1.947392 1.3691628,-2.872444 3.8178678,-3.975614 z"
       id="path4846-5-0-7"
       sodipodi:nodetypes="zczcz" />
    <path
       style="fill:#ffffff;fill-opacity:1;stroke:none;stroke-width:1.05833;stroke-miterlimit:4;stroke-dasharray:none;stroke-opacity:1"
       d="m 11.879643,28.263622 c 2.306018,-1.376742 3.457882,-0.824281 5.259139,-0.648427 -0.634496,1.480682 -0.814017,2.83695 -3.170026,4.17391 -2.356021,1.336938 -3.378281,1.308629 -5.4257983,0.861791 0.6289761,-2.032949 1.0306696,-3.010525 3.3366853,-4.387272 z"
       id="path4846-5-0-7-4"
       sodipodi:nodetypes="zczcz" />
    <path
       style="fill:#ffffff;fill-opacity:1;stroke:none;stroke-width:1.05833;stroke-miterlimit:4;stroke-dasharray:none;stroke-opacity:1"
       d="m 11.132544,34.22233 c 1.672614,-2.10131 2.945288,-1.990394 4.692896,-2.460842 -0.07176,1.609303 0.238393,2.941782 -1.495043,5.02349 -1.733437,2.081689 -2.700046,2.415583 -4.7736353,2.71926 -0.1280978,-2.124166 -0.096826,-3.180591 1.5757833,-5.281906 z"
       id="path4846-5-0-7-4-3"
       sodipodi:nodetypes="zczcz" />
    <path
       style="fill:#ffffff;fill-opacity:1;stroke:none;stroke-width:1.05833;stroke-miterlimit:4;stroke-dasharray:none;stroke-opacity:1"
       d="m 12.596626,39.126321 c 1.535484,-2.203505 2.812637,-2.173814 4.52676,-2.754534 0.03081,1.610606 0.425125,2.920646 -1.172289,5.108456 -1.597432,2.187796 -2.54083,2.582532 -4.590887,3.017568 -0.263033,-2.111706 -0.299063,-3.167979 1.236418,-5.371488 z"
       id="path4846-5-0-7-4-3-3"
       sodipodi:nodetypes="zczcz" />
    <path
       style="fill:#ffffff;fill-opacity:1;stroke:none;stroke-width:1.05833;stroke-miterlimit:4;stroke-dasharray:none;stroke-opacity:1"
       d="m 14.764842,44.771473 c 0.285449,-2.670517 1.419249,-3.25916 2.642302,-4.593174 0.802161,1.396975 1.778301,2.355536 1.431013,5.042101 -0.347312,2.686562 -0.984284,3.486614 -2.571922,4.854604 -1.246889,-1.724457 -1.786835,-2.633012 -1.50139,-5.30353 z"
       id="path4846-5-0-7-4-3-3-1"
       sodipodi:nodetypes="zczcz" />
    <path
       style="fill:#ffffff;fill-opacity:1;stroke:none;stroke-width:1.05833;stroke-miterlimit:4;stroke-dasharray:none;stroke-opacity:1"
       d="m 18.969997,49.590984 c -0.413356,-2.653729 0.53014,-3.515018 1.367523,-5.119463 1.135486,1.14266 2.325925,1.816859 2.683678,4.502051 0.357729,2.685194 -0.05121,3.622521 -1.232064,5.353875 C 20.139474,52.983161 19.38336,52.244713 18.97,49.590984 Z"
       id="path4846-5-0-7-4-3-3-1-4"
       sodipodi:nodetypes="zczcz" />
    <path
       style="fill:#ffffff;fill-opacity:1;stroke:none;stroke-width:1.05833;stroke-miterlimit:4;stroke-dasharray:none;stroke-opacity:1"
       d="m 24.925539,53.682374 c -1.628988,-2.135307 -1.210502,-3.342317 -1.239725,-5.151903 1.543001,0.462762 2.910873,0.487569 4.505996,2.677049 1.595103,2.189494 1.682723,3.208384 1.470586,5.29333 -2.09109,-0.394747 -3.107862,-0.683172 -4.736854,-2.818477 z"
       id="path4846-5-0-7-4-3-3-1-4-3"
       sodipodi:nodetypes="zczcz" />
    <path
       style="fill:#ffffff;fill-opacity:1;stroke:none;stroke-width:1.05833;stroke-miterlimit:4;stroke-dasharray:none;stroke-opacity:1"
       d="m 14.933628,11.158709 c 1.437728,-2.2684956 2.714961,-2.2946426 4.402069,-2.9497116 0.101158,1.607722 0.552344,2.8992796 -0.947941,5.1548026 -1.500307,2.25551 -2.425553,2.691094 -4.454643,3.215297 -0.355057,-2.098197 -0.437209,-3.151888 1.000515,-5.420388 z"
       id="path4846-2"
       sodipodi:nodetypes="zczcz" />
    <path
       style="fill:#ffffff;fill-opacity:1;stroke:none;stroke-width:1.05833;stroke-miterlimit:4;stroke-dasharray:none;stroke-opacity:1"
       d="m 58.511712,14.136917 c 0.04988,-2.685265 -1.001644,-3.410733 -2.04875,-4.8868826 -0.970142,1.2860116 -2.058224,2.1153286 -2.048749,4.8242306 0.0095,2.708903 0.541704,3.582157 1.946312,5.137494 1.452246,-1.555466 2.101302,-2.389576 2.151187,-5.074842 z"
       id="path4846-5-9"
       sodipodi:nodetypes="zczcz" />
    <path
       style="fill:#ffffff;fill-opacity:1;stroke:none;stroke-width:1.05833;stroke-miterlimit:4;stroke-dasharray:none;stroke-opacity:1"
       d="m 61.850564,20.119986 c 0.744699,-2.580418 -0.08266,-3.553809 -0.711027,-5.251042 -1.270514,0.990352 -2.536469,1.509048 -3.229977,4.12769 -0.693483,2.61865 -0.406007,3.600063 0.547089,5.466504 1.806011,-1.125531 2.64921,-1.762734 3.393915,-4.343152 z"
       id="path4846-5-4-7"
       sodipodi:nodetypes="zczcz" />
    <path
       style="fill:#ffffff;fill-opacity:1;stroke:none;stroke-width:1.05833;stroke-miterlimit:4;stroke-dasharray:none;stroke-opacity:1"
       d="m 63.744557,26.619161 c 1.415168,-2.282637 0.882074,-3.443594 0.73641,-5.247542 -1.4911,0.609609 -2.850184,0.766392 -4.226412,3.099681 -1.376207,2.333301 -1.365022,3.355891 -0.952534,5.410605 2.043197,-0.594842 3.027364,-0.980107 4.442536,-3.262744 z"
       id="path4846-5-4-3-7"
       sodipodi:nodetypes="zczcz" />
    <path
       style="fill:#ffffff;fill-opacity:1;stroke:none;stroke-width:1.05833;stroke-miterlimit:4;stroke-dasharray:none;stroke-opacity:1"
       d="m 63.887147,33.274886 c 1.798855,-1.994304 1.480911,-3.231609 1.658656,-5.03268 -1.575794,0.334477 -2.941082,0.246854 -4.710635,2.297932 -1.769535,2.051095 -1.940538,3.059348 -1.900354,5.154672 2.116449,-0.221677 3.153473,-0.425623 4.952333,-2.419924 z"
       id="path4846-5-4-3-0-3"
       sodipodi:nodetypes="zczcz" />
    <path
       style="fill:#ffffff;fill-opacity:1;stroke:none;stroke-width:1.05833;stroke-miterlimit:4;stroke-dasharray:none;stroke-opacity:1"
       d="m 62.861055,39.883183 c 2.298661,-1.388988 2.352058,-2.665374 3.042982,-4.338117 -1.605198,-0.135442 -2.886832,-0.614091 -5.173859,0.837713 -2.287014,1.451831 -2.742245,2.367572 -3.30963,4.385013 2.090143,0.399753 3.141841,0.504369 5.440505,-0.884618 z"
       id="path4846-5-4-3-0-6-7"
       sodipodi:nodetypes="zczcz" />
    <path
       style="fill:#ffffff;fill-opacity:1;stroke:none;stroke-width:1.05833;stroke-miterlimit:4;stroke-dasharray:none;stroke-opacity:1"
       d="m 60.890334,45.598903 c 2.582582,-0.737157 2.969028,-1.954807 4.074664,-3.387642 -1.513413,-0.551893 -2.624543,-1.350067 -5.212381,-0.549242 -2.587833,0.800854 -3.2674,1.565057 -4.344273,3.362928 1.912011,0.934192 2.899406,1.311103 5.481991,0.573947 z"
       id="path4846-5-4-3-0-6-2-3"
       sodipodi:nodetypes="zczcz" />
    <path
       style="fill:#ffffff;fill-opacity:1;stroke:none;stroke-width:1.05833;stroke-miterlimit:4;stroke-dasharray:none;stroke-opacity:1"
       d="m 57.046176,50.591613 c 2.598798,-0.677775 3.013049,-1.886248 4.151233,-3.293368 -1.500366,-0.586433 -2.592912,-1.409863 -5.198425,-0.668556 -2.605507,0.741334 -3.302409,1.489765 -4.420203,3.26248 1.890096,0.977766 2.868594,1.377209 5.467396,0.699435 z"
       id="path4846-5-4-3-0-6-2-0-3"
       sodipodi:nodetypes="zczcz" />
    <path
       style="fill:#ffffff;fill-opacity:1;stroke:none;stroke-width:1.05833;stroke-miterlimit:4;stroke-dasharray:none;stroke-opacity:1"
       d="m 52.194715,55.489409 c 2.678262,0.2001 3.461449,-0.809172 4.993892,-1.772015 -1.229698,-1.040597 -1.996813,-2.173394 -4.701996,-2.315557 -2.705188,-0.142136 -3.606863,0.340361 -5.238377,1.65571 1.471742,1.53703 2.268219,2.231752 4.946485,2.431854 z"
       id="path4846-5-4-3-0-6-2-0-1-4"
       sodipodi:nodetypes="zczcz" />
    <path
       style="fill:#ffffff;fill-opacity:1;stroke:none;stroke-width:1.05833;stroke-miterlimit:4;stroke-dasharray:none;stroke-opacity:1"
       d="m 46.238835,59.182926 c 2.475972,1.040526 3.539202,0.332319 5.298131,-0.09384 -0.835442,-1.37733 -1.202973,-2.695137 -3.722875,-3.689278 -2.519916,-0.994118 -3.528159,-0.823044 -5.493006,-0.0941 0.907249,1.924937 1.441782,2.836688 3.917757,3.877217 z"
       id="path4846-5-4-3-0-6-2-0-1-6-2"
       sodipodi:nodetypes="zczcz" />
    <path
       style="fill:#ffffff;fill-opacity:1;stroke:none;stroke-width:1.05833;stroke-miterlimit:4;stroke-dasharray:none;stroke-opacity:1"
       d="m 39.654217,61.255728 c 2.306233,1.376379 3.458014,0.823732 5.259241,0.647602 -0.634732,-1.48058 -0.814465,-2.836821 -3.17068,-4.173411 -2.356234,-1.336568 -3.378491,-1.308096 -5.425934,-0.860934 0.629294,2.032848 1.031144,3.010361 3.337381,4.386743 z"
       id="path4846-5-4-3-0-6-2-0-1-6-9-2"
       sodipodi:nodetypes="zczcz" />
    <path
       style="fill:#ffffff;fill-opacity:1;stroke:none;stroke-width:1.05833;stroke-miterlimit:4;stroke-dasharray:none;stroke-opacity:1"
       d="m 53.31553,17.690468 c -2.385278,-1.234336 -3.501513,-0.613026 -5.288787,-0.328241 0.723138,1.43947 0.984592,2.782352 3.417357,3.973947 2.432776,1.191573 3.451435,1.101312 5.468081,0.531102 -0.751126,-1.991055 -1.211374,-2.942467 -3.596651,-4.176808 z"
       id="path4846-5-0-74"
       sodipodi:nodetypes="zczcz" />
    <path
       style="fill:#ffffff;fill-opacity:1;stroke:none;stroke-width:1.05833;stroke-miterlimit:4;stroke-dasharray:none;stroke-opacity:1"
       d="m 54.937671,22.71112 c -2.448707,-1.103165 -3.529606,-0.422235 -5.298805,-0.04094 0.800137,1.398135 1.134031,2.724862 3.627837,3.782774 2.493816,1.057888 3.506081,0.912518 5.488837,0.233784 -0.857998,-1.947392 -1.369164,-2.872444 -3.817869,-3.975614 z"
       id="path4846-5-0-7-0"
       sodipodi:nodetypes="zczcz" />
    <path
       style="fill:#ffffff;fill-opacity:1;stroke:none;stroke-width:1.05833;stroke-miterlimit:4;stroke-dasharray:none;stroke-opacity:1"
       d="m 55.965373,28.080787 c -2.306018,-1.376742 -3.457882,-0.824281 -5.259139,-0.648427 0.634496,1.480682 0.814017,2.83695 3.170026,4.17391 2.356021,1.336938 3.378281,1.308629 5.425799,0.861791 -0.628976,-2.032949 -1.03067,-3.010525 -3.336686,-4.387272 z"
       id="path4846-5-0-7-4-5"
       sodipodi:nodetypes="zczcz" />
    <path
       style="fill:#ffffff;fill-opacity:1;stroke:none;stroke-width:1.05833;stroke-miterlimit:4;stroke-dasharray:none;stroke-opacity:1"
       d="m 56.712472,34.039495 c -1.672614,-2.10131 -2.945288,-1.990394 -4.692896,-2.460842 0.07176,1.609303 -0.238393,2.941782 1.495043,5.02349 1.733437,2.081689 2.700046,2.415583 4.773636,2.71926 0.128098,-2.124166 0.09683,-3.180591 -1.575784,-5.281906 z"
       id="path4846-5-0-7-4-3-5"
       sodipodi:nodetypes="zczcz" />
    <path
       style="fill:#ffffff;fill-opacity:1;stroke:none;stroke-width:1.05833;stroke-miterlimit:4;stroke-dasharray:none;stroke-opacity:1"
       d="m 55.24839,38.943486 c -1.535484,-2.203505 -2.812637,-2.173814 -4.52676,-2.754534 -0.03081,1.610606 -0.425125,2.920646 1.172289,5.108456 1.597432,2.187796 2.54083,2.582532 4.590887,3.017568 0.263033,-2.111706 0.299063,-3.167979 -1.236418,-5.371488 z"
       id="path4846-5-0-7-4-3-3-0"
       sodipodi:nodetypes="zczcz" />
    <path
       style="fill:#ffffff;fill-opacity:1;stroke:none;stroke-width:1.05833;stroke-miterlimit:4;stroke-dasharray:none;stroke-opacity:1"
       d="m 53.080174,44.588638 c -0.285449,-2.670517 -1.419249,-3.25916 -2.642302,-4.593174 -0.802161,1.396975 -1.778301,2.355536 -1.431013,5.042101 0.347312,2.686562 0.984284,3.486614 2.571922,4.854604 1.246889,-1.724457 1.786835,-2.633012 1.50139,-5.30353 z"
       id="path4846-5-0-7-4-3-3-1-6"
       sodipodi:nodetypes="zczcz" />
    <path
       style="fill:#ffffff;fill-opacity:1;stroke:none;stroke-width:1.05833;stroke-miterlimit:4;stroke-dasharray:none;stroke-opacity:1"
       d="m 48.875019,49.408149 c 0.413356,-2.653729 -0.53014,-3.515018 -1.367523,-5.119463 -1.135486,1.14266 -2.325925,1.816859 -2.683678,4.502051 -0.357729,2.685194 0.05121,3.622521 1.232064,5.353875 1.64966,-1.344286 2.405774,-2.082734 2.819134,-4.736463 z"
       id="path4846-5-0-7-4-3-3-1-4-1"
       sodipodi:nodetypes="zczcz" />
    <path
       style="fill:#ffffff;fill-opacity:1;stroke:none;stroke-width:1.05833;stroke-miterlimit:4;stroke-dasharray:none;stroke-opacity:1"
       d="m 42.919477,53.499539 c 1.628988,-2.135307 1.210502,-3.342317 1.239725,-5.151903 -1.543001,0.462762 -2.910873,0.487569 -4.505996,2.677049 -1.595103,2.189494 -1.682723,3.208384 -1.470586,5.29333 2.09109,-0.394747 3.107862,-0.683172 4.736854,-2.818477 z"
       id="path4846-5-0-7-4-3-3-1-4-3-1"
       sodipodi:nodetypes="zczcz" />
    <path
       style="fill:#ffffff;fill-opacity:1;stroke:none;stroke-width:1.05833;stroke-miterlimit:4;stroke-dasharray:none;stroke-opacity:1"
       d="M 52.911388,10.975874 C 51.47366,8.7073784 50.196427,8.6812314 48.509319,8.0261624 c -0.101158,1.607722 -0.552344,2.8992796 0.947941,5.1548026 1.500307,2.25551 2.425553,2.691094 4.454643,3.215297 0.355057,-2.098197 0.437209,-3.151888 -1.000515,-5.420388 z"
       id="path4846-2-5"
       sodipodi:nodetypes="zczcz" />
  </g>
</svg>
